<svg xmlns="http://www.w3.org/2000/svg" xmlns:xlink="http://www.w3.org/1999/xlink" width="500" zoomAndPan="magnify" viewBox="0 0 375 374.999991" height="500" preserveAspectRatio="xMidYMid meet" version="1.0"><defs><clipPath id="fecf718edc"><path d="M 0.078125 1.171875 L 199.476562 1.171875 L 199.476562 155.859375 L 0.078125 155.859375 Z M 0.078125 1.171875 " clip-rule="nonzero"/></clipPath><clipPath id="13af5100f6"><path d="M 171 1.171875 L 370.824219 1.171875 L 370.824219 155.859375 L 171 155.859375 Z M 171 1.171875 " clip-rule="nonzero"/></clipPath><clipPath id="debcf98008"><rect x="0" width="371" y="0" height="156"/></clipPath></defs><g transform="matrix(1, 0, 0, 1, 4, 109)"><g clip-path="url(#debcf98008)"><g clip-path="url(#fecf718edc)"><path fill="#21c9d0" d="M 71.648438 1.160156 C 61.96875 1.160156 53.171875 6.785156 49.109375 15.570312 L 3.125 114.980469 C -4.007812 130.398438 2.710938 148.679688 18.128906 155.8125 L 70.40625 42.796875 C 73.472656 36.164062 80.113281 31.921875 87.417969 31.921875 L 168.882812 31.921875 C 185.871094 31.921875 199.644531 18.148438 199.644531 1.160156 Z M 137.011719 123.402344 L 137.011719 123.398438 L 63.058594 123.398438 C 50.25 123.398438 39.867188 137.171875 39.867188 154.160156 L 113.820312 154.160156 C 126.628906 154.160156 137.011719 140.390625 137.011719 123.402344 Z M 141.050781 92.203125 L 67.097656 92.203125 C 67.097656 75.214844 77.480469 61.445312 90.289062 61.445312 L 164.242188 61.445312 C 164.242188 78.433594 153.859375 92.203125 141.050781 92.203125 " fill-opacity="1" fill-rule="nonzero"/></g><g clip-path="url(#13af5100f6)"><path fill="#21c9d0" d="M 242.996094 1.160156 C 233.316406 1.160156 224.519531 6.785156 220.457031 15.570312 L 174.472656 114.980469 C 167.339844 130.398438 174.058594 148.679688 189.476562 155.8125 L 241.753906 42.796875 C 244.820312 36.164062 251.460938 31.921875 258.765625 31.921875 L 340.230469 31.921875 C 357.21875 31.921875 370.992188 18.148438 370.992188 1.160156 Z M 308.359375 123.402344 L 308.359375 123.398438 L 234.40625 123.398438 C 221.597656 123.398438 211.214844 137.171875 211.214844 154.160156 L 285.167969 154.160156 C 297.976562 154.160156 308.359375 140.390625 308.359375 123.402344 Z M 312.398438 92.203125 L 238.445312 92.203125 C 238.445312 75.214844 248.828125 61.445312 261.636719 61.445312 L 335.589844 61.445312 C 335.589844 78.433594 325.207031 92.203125 312.398438 92.203125 " fill-opacity="1" fill-rule="nonzero"/></g></g></g></svg>